<svg xmlns="http://www.w3.org/2000/svg" width="1900" height="1400" viewBox="0 0 1900 1400" font-family="Arial, Helvetica, sans-serif">
<rect x="0" y="0" width="1900" height="1400" fill="#fff"/>
<rect x="8" y="8" width="1884" height="1384" fill="none" stroke="#222" stroke-width="2"/>
<text x="30.0" y="40.0" font-size="22" text-anchor="start" fill="#111" font-weight="bold">DUESLUSE v3 – TRE MODULER MED SVALEHALESKJØT (oversikt)</text>
<text x="30.0" y="62.0" font-size="12" text-anchor="start" fill="#333" font-weight="normal">A: rett spole (110) · M: elektronikk (90) · B: diamantspole + bobs (150) → 350 mm totalt · 150 bred · gulv 32 over brettet</text>
<text x="1870.0" y="40.0" font-size="12" text-anchor="end" fill="#333" font-weight="normal">PigeonPal · sluse v3</text>
<text x="1870.0" y="58.0" font-size="11" text-anchor="end" fill="#555" font-weight="normal">Skala: 2 px/mm (detalj 6 px/mm)</text>
<g transform="translate(120.0,130.0)">
<text x="0.0" y="-34.0" font-size="13" text-anchor="start" fill="#111" font-weight="bold">PLAN – sammensatt (A | M | B), skjøter vist som stiplede linjer</text>
</g>
<g transform="translate(120.0,130.0)">
<rect x="0.0" y="0.0" width="220.0" height="300.0" fill="#e6e6e6" stroke="#222" stroke-width="1.2"/>
<rect x="0.0" y="0.0" width="220.0" height="40.0" fill="#dadada" stroke="#555" stroke-width="1.2"/>
<rect x="0.0" y="260.0" width="220.0" height="40.0" fill="#dadada" stroke="#555" stroke-width="1.2"/>
<rect x="0.0" y="0.0" width="220.0" height="40.0" fill="#dadada" stroke="#555" stroke-width="1.2"/>
<rect x="0.0" y="260.0" width="220.0" height="40.0" fill="#dadada" stroke="#555" stroke-width="1.2"/>
<rect x="0.0" y="28.0" width="220.0" height="12.0" fill="#cfdcec" stroke="#335" stroke-width="1.2"/>
<rect x="0.0" y="260.0" width="220.0" height="12.0" fill="#cfdcec" stroke="#335" stroke-width="1.2"/>
<circle cx="20.0" cy="14.0" r="4.5" fill="none" stroke="#333" stroke-width="1.2"/>
<circle cx="20.0" cy="286.0" r="4.5" fill="none" stroke="#333" stroke-width="1.2"/>
<circle cx="110.0" cy="14.0" r="4.5" fill="none" stroke="#333" stroke-width="1.2"/>
<circle cx="110.0" cy="286.0" r="4.5" fill="none" stroke="#333" stroke-width="1.2"/>
<circle cx="200.0" cy="14.0" r="4.5" fill="none" stroke="#333" stroke-width="1.2"/>
<circle cx="200.0" cy="286.0" r="4.5" fill="none" stroke="#333" stroke-width="1.2"/>
<rect x="0.0" y="28.0" width="220.0" height="12.0" fill="#efe3cf" stroke="#8a6d3b" stroke-width="0.9" opacity="0.8"/>
<rect x="0.0" y="260.0" width="220.0" height="12.0" fill="#efe3cf" stroke="#8a6d3b" stroke-width="0.9" opacity="0.8"/>
<rect x="0.0" y="28.0" width="16.0" height="244.0" fill="#efe3cf" stroke="#8a6d3b" stroke-width="0.9" opacity="0.6"/>
<rect x="40.8" y="28.0" width="16.0" height="244.0" fill="#efe3cf" stroke="#8a6d3b" stroke-width="0.9" opacity="0.6"/>
<rect x="81.6" y="28.0" width="16.0" height="244.0" fill="#efe3cf" stroke="#8a6d3b" stroke-width="0.9" opacity="0.6"/>
<rect x="122.4" y="28.0" width="16.0" height="244.0" fill="#efe3cf" stroke="#8a6d3b" stroke-width="0.9" opacity="0.6"/>
<rect x="163.2" y="28.0" width="16.0" height="244.0" fill="#efe3cf" stroke="#8a6d3b" stroke-width="0.9" opacity="0.6"/>
<rect x="204.0" y="28.0" width="16.0" height="244.0" fill="#efe3cf" stroke="#8a6d3b" stroke-width="0.9" opacity="0.6"/>
<rect x="10.0" y="50.0" width="200.0" height="200.0" fill="none" stroke="#e07a10" stroke-width="3.5" stroke-dasharray="9,5"/>
<text x="110.0" y="154.0" font-size="11" text-anchor="middle" fill="#fff" stroke="#fff" stroke-width="4" font-weight="bold">SPOLE A – rett</text>
<text x="110.0" y="154.0" font-size="11" text-anchor="middle" fill="#e07a10" font-weight="bold">SPOLE A – rett</text>
<text x="110.0" y="178.0" font-size="9" text-anchor="middle" fill="#fff" stroke="#fff" stroke-width="4" font-weight="normal">tråder på tvers</text>
<text x="110.0" y="178.0" font-size="9" text-anchor="middle" fill="#e07a10" font-weight="normal">tråder på tvers</text>
<rect x="70.0" y="6.0" width="80.0" height="36.0" fill="none" stroke="#e07a10" stroke-width="1" stroke-dasharray="4,3"/>
<text x="74.0" y="40.0" font-size="8.5" text-anchor="start" fill="#fff" stroke="#fff" stroke-width="4" font-weight="normal">lomme kort 36×15</text>
<text x="74.0" y="40.0" font-size="8.5" text-anchor="start" fill="#e07a10" font-weight="normal">lomme kort 36×15</text>
<line x1="150.0" y1="10.0" x2="220.0" y2="34.0" stroke="#e07a10" stroke-width="2" stroke-dasharray="3,2"/>
<text x="154.0" y="26.0" font-size="8.5" text-anchor="start" fill="#fff" stroke="#fff" stroke-width="4" font-weight="normal">kabel → M</text>
<text x="154.0" y="26.0" font-size="8.5" text-anchor="start" fill="#e07a10" font-weight="normal">kabel → M</text>
<polygon points="220.0,43.4 207.4,39.4 207.4,68.6 220.0,64.6" fill="#fff" stroke="#8e44ad" stroke-width="1.3"/>
<polygon points="220.0,235.4 207.4,231.4 207.4,260.6 220.0,256.6" fill="#fff" stroke="#8e44ad" stroke-width="1.3"/>
<polygon points="-80.0,40.0 0.0,40.0 0.0,260.0 -80.0,260.0" fill="#f4f4f4" stroke="#333" stroke-width="1.2" stroke-dasharray="4,3"/>
<text x="-40.0" y="154.0" font-size="9" text-anchor="middle" fill="#fff" stroke="#fff" stroke-width="4" font-weight="normal">rampe</text>
<text x="-40.0" y="154.0" font-size="9" text-anchor="middle" fill="#444" font-weight="normal">rampe</text>
<text x="-40.0" y="176.0" font-size="8" text-anchor="middle" fill="#fff" stroke="#fff" stroke-width="4" font-weight="normal">(valgfri)</text>
<text x="-40.0" y="176.0" font-size="8" text-anchor="middle" fill="#444" font-weight="normal">(valgfri)</text>
</g>
<g transform="translate(340.0,130.0)">
<rect x="0.0" y="0.0" width="180.0" height="300.0" fill="#e6e6e6" stroke="#222" stroke-width="1.2"/>
<rect x="0.0" y="0.0" width="180.0" height="40.0" fill="#dadada" stroke="#555" stroke-width="1.2"/>
<rect x="0.0" y="260.0" width="180.0" height="40.0" fill="#dadada" stroke="#555" stroke-width="1.2"/>
<rect x="4.8" y="4.8" width="170.4" height="290.4" fill="#e9efe6" stroke="#777" stroke-width="1.2" stroke-dasharray="5,3"/>
<rect x="36.0" y="18.0" width="106.2" height="120.0" fill="none" stroke="#2e7d32" stroke-width="1.3" stroke-dasharray="6,3"/>
<rect x="44.0" y="166.0" width="90.0" height="60.0" fill="none" stroke="#2e7d32" stroke-width="1.3" stroke-dasharray="6,3"/>
<rect x="44.0" y="234.0" width="90.0" height="60.0" fill="none" stroke="#2e7d32" stroke-width="1.3" stroke-dasharray="6,3"/>
<circle cx="4.8" cy="34.0" r="8.0" fill="none" stroke="#e07a10" stroke-width="1.2" stroke-dasharray="3,2"/>
<circle cx="175.2" cy="34.0" r="8.0" fill="none" stroke="#b5651d" stroke-width="1.2" stroke-dasharray="3,2"/>
<circle cx="4.8" cy="266.0" r="8.0" fill="none" stroke="#e07a10" stroke-width="1.2" stroke-dasharray="3,2"/>
<circle cx="175.2" cy="266.0" r="8.0" fill="none" stroke="#b5651d" stroke-width="1.2" stroke-dasharray="3,2"/>
<rect x="0.0" y="0.0" width="180.0" height="40.0" fill="#dadada" stroke="#555" stroke-width="1.2"/>
<rect x="0.0" y="260.0" width="180.0" height="40.0" fill="#dadada" stroke="#555" stroke-width="1.2"/>
<rect x="0.0" y="28.0" width="180.0" height="12.0" fill="#cfdcec" stroke="#335" stroke-width="1.2"/>
<rect x="0.0" y="260.0" width="180.0" height="12.0" fill="#cfdcec" stroke="#335" stroke-width="1.2"/>
<circle cx="20.0" cy="14.0" r="4.5" fill="none" stroke="#333" stroke-width="1.2"/>
<circle cx="20.0" cy="286.0" r="4.5" fill="none" stroke="#333" stroke-width="1.2"/>
<circle cx="90.0" cy="14.0" r="4.5" fill="none" stroke="#333" stroke-width="1.2"/>
<circle cx="90.0" cy="286.0" r="4.5" fill="none" stroke="#333" stroke-width="1.2"/>
<circle cx="160.0" cy="14.0" r="4.5" fill="none" stroke="#333" stroke-width="1.2"/>
<circle cx="160.0" cy="286.0" r="4.5" fill="none" stroke="#333" stroke-width="1.2"/>
<rect x="0.0" y="28.0" width="180.0" height="12.0" fill="#efe3cf" stroke="#8a6d3b" stroke-width="0.9" opacity="0.8"/>
<rect x="0.0" y="260.0" width="180.0" height="12.0" fill="#efe3cf" stroke="#8a6d3b" stroke-width="0.9" opacity="0.8"/>
<rect x="0.0" y="28.0" width="16.0" height="244.0" fill="#efe3cf" stroke="#8a6d3b" stroke-width="0.9" opacity="0.6"/>
<rect x="41.0" y="28.0" width="16.0" height="244.0" fill="#efe3cf" stroke="#8a6d3b" stroke-width="0.9" opacity="0.6"/>
<rect x="82.0" y="28.0" width="16.0" height="244.0" fill="#efe3cf" stroke="#8a6d3b" stroke-width="0.9" opacity="0.6"/>
<rect x="123.0" y="28.0" width="16.0" height="244.0" fill="#efe3cf" stroke="#8a6d3b" stroke-width="0.9" opacity="0.6"/>
<rect x="164.0" y="28.0" width="16.0" height="244.0" fill="#efe3cf" stroke="#8a6d3b" stroke-width="0.9" opacity="0.6"/>
<polygon points="0.0,44.0 -12.0,40.0 -12.0,68.0 0.0,64.0" fill="#e8daef" stroke="#8e44ad" stroke-width="1.3"/>
<polygon points="0.0,236.0 -12.0,232.0 -12.0,260.0 0.0,256.0" fill="#e8daef" stroke="#8e44ad" stroke-width="1.3"/>
<polygon points="180.0,44.0 192.0,40.0 192.0,68.0 180.0,64.0" fill="#e8daef" stroke="#8e44ad" stroke-width="1.3"/>
<polygon points="180.0,236.0 192.0,232.0 192.0,260.0 180.0,256.0" fill="#e8daef" stroke="#8e44ad" stroke-width="1.3"/>
</g>
<g transform="translate(520.0,130.0)">
<rect x="0.0" y="0.0" width="300.0" height="300.0" fill="#e6e6e6" stroke="#222" stroke-width="1.2"/>
<rect x="0.0" y="0.0" width="300.0" height="40.0" fill="#dadada" stroke="#555" stroke-width="1.2"/>
<rect x="0.0" y="260.0" width="300.0" height="40.0" fill="#dadada" stroke="#555" stroke-width="1.2"/>
<rect x="0.0" y="0.0" width="300.0" height="40.0" fill="#dadada" stroke="#555" stroke-width="1.2"/>
<rect x="0.0" y="260.0" width="300.0" height="40.0" fill="#dadada" stroke="#555" stroke-width="1.2"/>
<rect x="0.0" y="28.0" width="300.0" height="12.0" fill="#cfdcec" stroke="#335" stroke-width="1.2"/>
<rect x="0.0" y="260.0" width="300.0" height="12.0" fill="#cfdcec" stroke="#335" stroke-width="1.2"/>
<circle cx="20.0" cy="14.0" r="4.5" fill="none" stroke="#333" stroke-width="1.2"/>
<circle cx="20.0" cy="286.0" r="4.5" fill="none" stroke="#333" stroke-width="1.2"/>
<circle cx="150.0" cy="14.0" r="4.5" fill="none" stroke="#333" stroke-width="1.2"/>
<circle cx="150.0" cy="286.0" r="4.5" fill="none" stroke="#333" stroke-width="1.2"/>
<circle cx="280.0" cy="14.0" r="4.5" fill="none" stroke="#333" stroke-width="1.2"/>
<circle cx="280.0" cy="286.0" r="4.5" fill="none" stroke="#333" stroke-width="1.2"/>
<rect x="0.0" y="28.0" width="300.0" height="12.0" fill="#efe3cf" stroke="#8a6d3b" stroke-width="0.9" opacity="0.8"/>
<rect x="0.0" y="260.0" width="300.0" height="12.0" fill="#efe3cf" stroke="#8a6d3b" stroke-width="0.9" opacity="0.8"/>
<rect x="0.0" y="28.0" width="16.0" height="244.0" fill="#efe3cf" stroke="#8a6d3b" stroke-width="0.9" opacity="0.6"/>
<rect x="47.3" y="28.0" width="16.0" height="244.0" fill="#efe3cf" stroke="#8a6d3b" stroke-width="0.9" opacity="0.6"/>
<rect x="94.7" y="28.0" width="16.0" height="244.0" fill="#efe3cf" stroke="#8a6d3b" stroke-width="0.9" opacity="0.6"/>
<rect x="142.0" y="28.0" width="16.0" height="244.0" fill="#efe3cf" stroke="#8a6d3b" stroke-width="0.9" opacity="0.6"/>
<rect x="189.3" y="28.0" width="16.0" height="244.0" fill="#efe3cf" stroke="#8a6d3b" stroke-width="0.9" opacity="0.6"/>
<rect x="236.7" y="28.0" width="16.0" height="244.0" fill="#efe3cf" stroke="#8a6d3b" stroke-width="0.9" opacity="0.6"/>
<rect x="284.0" y="28.0" width="16.0" height="244.0" fill="#efe3cf" stroke="#8a6d3b" stroke-width="0.9" opacity="0.6"/>
<polygon points="291.4,150.0 150.0,291.4 8.6,150.0 150.0,8.6" fill="none" stroke="#b5651d" stroke-width="3.5" stroke-dasharray="9,5"/>
<text x="150.0" y="154.0" font-size="11" text-anchor="middle" fill="#fff" stroke="#fff" stroke-width="4" font-weight="bold">SPOLE B – diamant 45°</text>
<text x="150.0" y="154.0" font-size="11" text-anchor="middle" fill="#b5651d" font-weight="bold">SPOLE B – diamant 45°</text>
<text x="150.0" y="178.0" font-size="9" text-anchor="middle" fill="#fff" stroke="#fff" stroke-width="4" font-weight="normal">tråder på skrå</text>
<text x="150.0" y="178.0" font-size="9" text-anchor="middle" fill="#b5651d" font-weight="normal">tråder på skrå</text>
<rect x="110.0" y="6.0" width="80.0" height="36.0" fill="none" stroke="#b5651d" stroke-width="1" stroke-dasharray="4,3"/>
<text x="114.0" y="40.0" font-size="8.5" text-anchor="start" fill="#fff" stroke="#fff" stroke-width="4" font-weight="normal">lomme kort 36×15</text>
<text x="114.0" y="40.0" font-size="8.5" text-anchor="start" fill="#b5651d" font-weight="normal">lomme kort 36×15</text>
<line x1="110.0" y1="10.0" x2="0.0" y2="34.0" stroke="#b5651d" stroke-width="2" stroke-dasharray="3,2"/>
<text x="30.0" y="26.0" font-size="8.5" text-anchor="start" fill="#fff" stroke="#fff" stroke-width="4" font-weight="normal">kabel → M</text>
<text x="30.0" y="26.0" font-size="8.5" text-anchor="start" fill="#b5651d" font-weight="normal">kabel → M</text>
<circle cx="276.0" cy="62.0" r="6.0" fill="#fff" stroke="#111" stroke-width="1.4"/>
<circle cx="276.0" cy="106.0" r="6.0" fill="#fff" stroke="#111" stroke-width="1.4"/>
<circle cx="276.0" cy="150.0" r="6.0" fill="#fff" stroke="#111" stroke-width="1.4"/>
<circle cx="276.0" cy="194.0" r="6.0" fill="#fff" stroke="#111" stroke-width="1.4"/>
<circle cx="276.0" cy="238.0" r="6.0" fill="#fff" stroke="#111" stroke-width="1.4"/>
<line x1="276.0" y1="28.0" x2="276.0" y2="272.0" stroke="#111" stroke-width="0.8" stroke-dasharray="2,2"/>
<line x1="264.0" y1="40.0" x2="264.0" y2="260.0" stroke="#111" stroke-width="2.5"/>
<text x="256.0" y="282.0" font-size="8.5" text-anchor="end" fill="#fff" stroke="#fff" stroke-width="4" font-weight="normal">stoppstang</text>
<text x="256.0" y="282.0" font-size="8.5" text-anchor="end" fill="#111" font-weight="normal">stoppstang</text>
<text x="316.0" y="70.0" font-size="9" text-anchor="start" fill="#111" font-weight="normal">bobs ×5</text>
<text x="316.0" y="90.0" font-size="9" text-anchor="start" fill="#111" font-weight="normal">deling 22</text>
<polygon points="0.0,43.4 12.6,39.4 12.6,68.6 0.0,64.6" fill="#fff" stroke="#8e44ad" stroke-width="1.3"/>
<polygon points="0.0,235.4 12.6,231.4 12.6,260.6 0.0,256.6" fill="#fff" stroke="#8e44ad" stroke-width="1.3"/>
</g>
<g transform="translate(120.0,130.0)">
<line x1="220.0" y1="-12.0" x2="220.0" y2="312.0" stroke="#8e44ad" stroke-width="1.2" stroke-dasharray="6,3"/>
<line x1="400.0" y1="-12.0" x2="400.0" y2="312.0" stroke="#8e44ad" stroke-width="1.2" stroke-dasharray="6,3"/>
<text x="220.0" y="-20.0" font-size="9" text-anchor="middle" fill="#fff" stroke="#fff" stroke-width="4" font-weight="normal">skjøt A|M</text>
<text x="220.0" y="-20.0" font-size="9" text-anchor="middle" fill="#8e44ad" font-weight="normal">skjøt A|M</text>
<text x="400.0" y="-20.0" font-size="9" text-anchor="middle" fill="#fff" stroke="#fff" stroke-width="4" font-weight="normal">skjøt M|B</text>
<text x="400.0" y="-20.0" font-size="9" text-anchor="middle" fill="#8e44ad" font-weight="normal">skjøt M|B</text>
<line x1="0.0" y1="300.0" x2="0.0" y2="326.0" stroke="#1a4d8f" stroke-width="0.7"/>
<line x1="220.0" y1="300.0" x2="220.0" y2="326.0" stroke="#1a4d8f" stroke-width="0.7"/>
<line x1="0.0" y1="322.0" x2="220.0" y2="322.0" stroke="#1a4d8f" stroke-width="0.9"/>
<line x1="-3.0" y1="325.0" x2="3.0" y2="319.0" stroke="#1a4d8f" stroke-width="1.1"/>
<line x1="217.0" y1="325.0" x2="223.0" y2="319.0" stroke="#1a4d8f" stroke-width="1.1"/>
<text x="110.0" y="318.0" font-size="11" text-anchor="middle" fill="#1a4d8f" font-weight="normal">A 110</text>
<line x1="220.0" y1="300.0" x2="220.0" y2="326.0" stroke="#1a4d8f" stroke-width="0.7"/>
<line x1="400.0" y1="300.0" x2="400.0" y2="326.0" stroke="#1a4d8f" stroke-width="0.7"/>
<line x1="220.0" y1="322.0" x2="400.0" y2="322.0" stroke="#1a4d8f" stroke-width="0.9"/>
<line x1="217.0" y1="325.0" x2="223.0" y2="319.0" stroke="#1a4d8f" stroke-width="1.1"/>
<line x1="397.0" y1="325.0" x2="403.0" y2="319.0" stroke="#1a4d8f" stroke-width="1.1"/>
<text x="310.0" y="318.0" font-size="11" text-anchor="middle" fill="#1a4d8f" font-weight="normal">M 90</text>
<line x1="400.0" y1="300.0" x2="400.0" y2="326.0" stroke="#1a4d8f" stroke-width="0.7"/>
<line x1="700.0" y1="300.0" x2="700.0" y2="326.0" stroke="#1a4d8f" stroke-width="0.7"/>
<line x1="400.0" y1="322.0" x2="700.0" y2="322.0" stroke="#1a4d8f" stroke-width="0.9"/>
<line x1="397.0" y1="325.0" x2="403.0" y2="319.0" stroke="#1a4d8f" stroke-width="1.1"/>
<line x1="697.0" y1="325.0" x2="703.0" y2="319.0" stroke="#1a4d8f" stroke-width="1.1"/>
<text x="550.0" y="318.0" font-size="11" text-anchor="middle" fill="#1a4d8f" font-weight="normal">B 150</text>
<line x1="0.0" y1="300.0" x2="0.0" y2="346.0" stroke="#1a4d8f" stroke-width="0.7"/>
<line x1="700.0" y1="300.0" x2="700.0" y2="346.0" stroke="#1a4d8f" stroke-width="0.7"/>
<line x1="0.0" y1="342.0" x2="700.0" y2="342.0" stroke="#1a4d8f" stroke-width="0.9"/>
<line x1="-3.0" y1="345.0" x2="3.0" y2="339.0" stroke="#1a4d8f" stroke-width="1.1"/>
<line x1="697.0" y1="345.0" x2="703.0" y2="339.0" stroke="#1a4d8f" stroke-width="1.1"/>
<text x="350.0" y="338.0" font-size="11" text-anchor="middle" fill="#1a4d8f" font-weight="normal">350</text>
<line x1="700.0" y1="40.0" x2="742.0" y2="40.0" stroke="#1a4d8f" stroke-width="0.7"/>
<line x1="700.0" y1="260.0" x2="742.0" y2="260.0" stroke="#1a4d8f" stroke-width="0.7"/>
<line x1="746.0" y1="40.0" x2="746.0" y2="260.0" stroke="#1a4d8f" stroke-width="0.9"/>
<line x1="743.0" y1="43.0" x2="749.0" y2="37.0" stroke="#1a4d8f" stroke-width="1.1"/>
<line x1="743.0" y1="263.0" x2="749.0" y2="257.0" stroke="#1a4d8f" stroke-width="1.1"/>
<text x="750.0" y="150.0" font-size="11" text-anchor="middle" fill="#1a4d8f" font-weight="normal" transform="rotate(-90 750.0 150.0)">110 innv.</text>
<line x1="700.0" y1="0.0" x2="768.0" y2="0.0" stroke="#1a4d8f" stroke-width="0.7"/>
<line x1="700.0" y1="300.0" x2="768.0" y2="300.0" stroke="#1a4d8f" stroke-width="0.7"/>
<line x1="772.0" y1="0.0" x2="772.0" y2="300.0" stroke="#1a4d8f" stroke-width="0.9"/>
<line x1="769.0" y1="3.0" x2="775.0" y2="-3.0" stroke="#1a4d8f" stroke-width="1.1"/>
<line x1="769.0" y1="303.0" x2="775.0" y2="297.0" stroke="#1a4d8f" stroke-width="1.1"/>
<text x="776.0" y="150.0" font-size="11" text-anchor="middle" fill="#1a4d8f" font-weight="normal" transform="rotate(-90 776.0 150.0)">150</text>
<line x1="-88.0" y1="198.0" x2="-16.0" y2="198.0" stroke="#111" stroke-width="2"/>
<polygon points="-12.0,198.0 -28.0,190.0 -28.0,206.0" fill="#111" stroke="#222" stroke-width="1.2"/>
<text x="-88.0" y="186.0" font-size="11" text-anchor="start" fill="#111" font-weight="bold">INN</text>
<text x="716.0" y="190.0" font-size="11" text-anchor="start" fill="#111" font-weight="bold">UT</text>
</g>
<g transform="translate(120.0,600.0)">
<text x="0.0" y="-14.0" font-size="13" text-anchor="start" fill="#111" font-weight="bold">LENGDESNITT – sammensatt (Y = 0)</text>
</g>
<g transform="translate(120.0,600.0)">
<rect x="0.0" y="252.0" width="220.0" height="24.0" fill="#cfdcec" stroke="#88a" stroke-width="0.8"/>
<rect x="0.0" y="36.0" width="220.0" height="20.0" fill="#cfdcec" stroke="#88a" stroke-width="0.8"/>
<rect x="0.0" y="56.0" width="16.0" height="196.0" fill="#cfdcec" stroke="#88a" stroke-width="0.8"/>
<rect x="40.8" y="56.0" width="16.0" height="196.0" fill="#cfdcec" stroke="#88a" stroke-width="0.8"/>
<rect x="81.6" y="56.0" width="16.0" height="196.0" fill="#cfdcec" stroke="#88a" stroke-width="0.8"/>
<rect x="122.4" y="56.0" width="16.0" height="196.0" fill="#cfdcec" stroke="#88a" stroke-width="0.8"/>
<rect x="163.2" y="56.0" width="16.0" height="196.0" fill="#cfdcec" stroke="#88a" stroke-width="0.8"/>
<rect x="204.0" y="56.0" width="16.0" height="196.0" fill="#cfdcec" stroke="#88a" stroke-width="0.8"/>
<rect x="0.0" y="276.0" width="220.0" height="8.0" fill="#e6e6e6" stroke="#333" stroke-width="1.2"/>
<rect x="0.0" y="284.0" width="4.8" height="56.0" fill="#e6e6e6" stroke="#333" stroke-width="1.2"/>
<rect x="215.2" y="284.0" width="4.8" height="56.0" fill="#e6e6e6" stroke="#333" stroke-width="1.2"/>
<rect x="107.6" y="284.0" width="4.8" height="56.0" fill="#e6e6e6" stroke="#333" stroke-width="0.8"/>
<rect x="10.0" y="284.0" width="200.0" height="12.0" fill="#fff" stroke="#333" stroke-width="1.2"/>
<rect x="10.0" y="292.0" width="4.0" height="4.0" fill="#e07a10" stroke="#e07a10" stroke-width="1.2"/>
<rect x="206.0" y="292.0" width="4.0" height="4.0" fill="#e07a10" stroke="#e07a10" stroke-width="1.2"/>
<rect x="4.0" y="296.0" width="212.0" height="4.0" fill="#bbb" stroke="#333" stroke-width="0.8"/>
<text x="110.0" y="293.0" font-size="9" text-anchor="middle" fill="#fff" stroke="#fff" stroke-width="4" font-weight="normal">lomme 100 bred i Y=0 · sperrelist 2 mm</text>
<text x="110.0" y="293.0" font-size="9" text-anchor="middle" fill="#e07a10" font-weight="normal">lomme 100 bred i Y=0 · sperrelist 2 mm</text>
<text x="110.0" y="325.0" font-size="9" text-anchor="middle" fill="#fff" stroke="#fff" stroke-width="4" font-weight="normal">hult – står rett på landingsbrettet</text>
<text x="110.0" y="325.0" font-size="9" text-anchor="middle" fill="#444" font-weight="normal">hult – står rett på landingsbrettet</text>
<rect x="0.0" y="24.0" width="16.0" height="12.0" fill="#efe3cf" stroke="#8a6d3b" stroke-width="1.2"/>
<rect x="40.8" y="24.0" width="16.0" height="12.0" fill="#efe3cf" stroke="#8a6d3b" stroke-width="1.2"/>
<rect x="81.6" y="24.0" width="16.0" height="12.0" fill="#efe3cf" stroke="#8a6d3b" stroke-width="1.2"/>
<rect x="122.4" y="24.0" width="16.0" height="12.0" fill="#efe3cf" stroke="#8a6d3b" stroke-width="1.2"/>
<rect x="163.2" y="24.0" width="16.0" height="12.0" fill="#efe3cf" stroke="#8a6d3b" stroke-width="1.2"/>
<rect x="204.0" y="24.0" width="16.0" height="12.0" fill="#efe3cf" stroke="#8a6d3b" stroke-width="1.2"/>
<rect x="208.0" y="276.0" width="12.0" height="60.0" fill="#fff" stroke="#8e44ad" stroke-width="1.2" stroke-dasharray="4,2"/>
<line x1="110.0" y1="276.0" x2="126.0" y2="152.0" stroke="#7a4b1e" stroke-width="3"/>
<line x1="92.0" y1="276.0" x2="128.0" y2="276.0" stroke="#7a4b1e" stroke-width="3"/>
<rect x="104.0" y="246.0" width="16.0" height="16.0" fill="#f5c26b" stroke="#7a4b1e" stroke-width="1.2"/>
<text x="138.0" y="236.0" font-size="9" text-anchor="start" fill="#fff" stroke="#fff" stroke-width="4" font-weight="normal">ring 5–10 over gulv → 9–14 til vikling</text>
<text x="138.0" y="236.0" font-size="9" text-anchor="start" fill="#7a4b1e" font-weight="normal">ring 5–10 over gulv → 9–14 til vikling</text>
<polygon points="-120.0,340.0 0.0,340.0 0.0,276.0" fill="#f4f4f4" stroke="#333" stroke-width="1.2" stroke-dasharray="4,3"/>
<text x="-60.0" y="357.0" font-size="9" text-anchor="middle" fill="#fff" stroke="#fff" stroke-width="4" font-weight="normal">rampe (valgfri)</text>
<text x="-60.0" y="357.0" font-size="9" text-anchor="middle" fill="#444" font-weight="normal">rampe (valgfri)</text>
</g>
<g transform="translate(340.0,600.0)">
<rect x="0.0" y="252.0" width="180.0" height="24.0" fill="#cfdcec" stroke="#88a" stroke-width="0.8"/>
<rect x="0.0" y="36.0" width="180.0" height="20.0" fill="#cfdcec" stroke="#88a" stroke-width="0.8"/>
<rect x="0.0" y="56.0" width="16.0" height="196.0" fill="#cfdcec" stroke="#88a" stroke-width="0.8"/>
<rect x="41.0" y="56.0" width="16.0" height="196.0" fill="#cfdcec" stroke="#88a" stroke-width="0.8"/>
<rect x="82.0" y="56.0" width="16.0" height="196.0" fill="#cfdcec" stroke="#88a" stroke-width="0.8"/>
<rect x="123.0" y="56.0" width="16.0" height="196.0" fill="#cfdcec" stroke="#88a" stroke-width="0.8"/>
<rect x="164.0" y="56.0" width="16.0" height="196.0" fill="#cfdcec" stroke="#88a" stroke-width="0.8"/>
<rect x="0.0" y="276.0" width="180.0" height="8.0" fill="#e6e6e6" stroke="#333" stroke-width="1.2"/>
<rect x="0.0" y="284.0" width="4.8" height="56.0" fill="#e6e6e6" stroke="#333" stroke-width="1.2"/>
<rect x="175.2" y="284.0" width="4.8" height="56.0" fill="#e6e6e6" stroke="#333" stroke-width="1.2"/>
<rect x="4.8" y="284.0" width="170.4" height="50.0" fill="#e9efe6" stroke="#333" stroke-width="0.6"/>
<rect x="-2.0" y="334.0" width="184.0" height="6.0" fill="#c5dcbf" stroke="#333" stroke-width="1.2"/>
<rect x="30.0" y="320.8" width="106.2" height="3.2" fill="#2e7d32" stroke="#2e7d32" stroke-width="1.2"/>
<text x="90.0" y="303.0" font-size="9" text-anchor="middle" fill="#fff" stroke="#fff" stroke-width="4" font-weight="normal">kammer 25 innv.</text>
<text x="90.0" y="303.0" font-size="9" text-anchor="middle" fill="#3a5a2a" font-weight="normal">kammer 25 innv.</text>
<text x="90.0" y="317.0" font-size="8.5" text-anchor="middle" fill="#fff" stroke="#fff" stroke-width="4" font-weight="normal">PCB på 5 mm</text>
<text x="90.0" y="317.0" font-size="8.5" text-anchor="middle" fill="#3a5a2a" font-weight="normal">PCB på 5 mm</text>
<text x="90.0" y="359.0" font-size="8.5" text-anchor="middle" fill="#fff" stroke="#fff" stroke-width="4" font-weight="normal">lokk 3 mm + pakning, skrus fra undersiden</text>
<text x="90.0" y="359.0" font-size="8.5" text-anchor="middle" fill="#3a5a2a" font-weight="normal">lokk 3 mm + pakning, skrus fra undersiden</text>
<circle cx="0.0" cy="320.0" r="8.0" fill="none" stroke="#444" stroke-width="1.2" stroke-dasharray="3,2"/>
<circle cx="180.0" cy="320.0" r="8.0" fill="none" stroke="#444" stroke-width="1.2" stroke-dasharray="3,2"/>
<rect x="0.0" y="24.0" width="16.0" height="12.0" fill="#efe3cf" stroke="#8a6d3b" stroke-width="1.2"/>
<rect x="41.0" y="24.0" width="16.0" height="12.0" fill="#efe3cf" stroke="#8a6d3b" stroke-width="1.2"/>
<rect x="82.0" y="24.0" width="16.0" height="12.0" fill="#efe3cf" stroke="#8a6d3b" stroke-width="1.2"/>
<rect x="123.0" y="24.0" width="16.0" height="12.0" fill="#efe3cf" stroke="#8a6d3b" stroke-width="1.2"/>
<rect x="164.0" y="24.0" width="16.0" height="12.0" fill="#efe3cf" stroke="#8a6d3b" stroke-width="1.2"/>
<rect x="-12.0" y="276.0" width="12.0" height="60.0" fill="#e8daef" stroke="#8e44ad" stroke-width="1.2" stroke-dasharray="4,2"/>
<rect x="180.0" y="276.0" width="12.0" height="60.0" fill="#e8daef" stroke="#8e44ad" stroke-width="1.2" stroke-dasharray="4,2"/>
</g>
<g transform="translate(520.0,600.0)">
<rect x="0.0" y="252.0" width="300.0" height="24.0" fill="#cfdcec" stroke="#88a" stroke-width="0.8"/>
<rect x="0.0" y="36.0" width="300.0" height="20.0" fill="#cfdcec" stroke="#88a" stroke-width="0.8"/>
<rect x="0.0" y="56.0" width="16.0" height="196.0" fill="#cfdcec" stroke="#88a" stroke-width="0.8"/>
<rect x="47.3" y="56.0" width="16.0" height="196.0" fill="#cfdcec" stroke="#88a" stroke-width="0.8"/>
<rect x="94.7" y="56.0" width="16.0" height="196.0" fill="#cfdcec" stroke="#88a" stroke-width="0.8"/>
<rect x="142.0" y="56.0" width="16.0" height="196.0" fill="#cfdcec" stroke="#88a" stroke-width="0.8"/>
<rect x="189.3" y="56.0" width="16.0" height="196.0" fill="#cfdcec" stroke="#88a" stroke-width="0.8"/>
<rect x="236.7" y="56.0" width="16.0" height="196.0" fill="#cfdcec" stroke="#88a" stroke-width="0.8"/>
<rect x="284.0" y="56.0" width="16.0" height="196.0" fill="#cfdcec" stroke="#88a" stroke-width="0.8"/>
<rect x="0.0" y="276.0" width="300.0" height="8.0" fill="#e6e6e6" stroke="#333" stroke-width="1.2"/>
<rect x="0.0" y="284.0" width="4.8" height="56.0" fill="#e6e6e6" stroke="#333" stroke-width="1.2"/>
<rect x="295.2" y="284.0" width="4.8" height="56.0" fill="#e6e6e6" stroke="#333" stroke-width="1.2"/>
<rect x="147.6" y="284.0" width="4.8" height="56.0" fill="#e6e6e6" stroke="#333" stroke-width="0.8"/>
<rect x="8.6" y="284.0" width="282.8" height="12.0" fill="#fff" stroke="#333" stroke-width="1.2"/>
<rect x="8.6" y="292.0" width="4.0" height="4.0" fill="#b5651d" stroke="#b5651d" stroke-width="1.2"/>
<rect x="287.4" y="292.0" width="4.0" height="4.0" fill="#b5651d" stroke="#b5651d" stroke-width="1.2"/>
<rect x="2.6" y="296.0" width="294.8" height="4.0" fill="#bbb" stroke="#333" stroke-width="0.8"/>
<text x="150.0" y="293.0" font-size="9" text-anchor="middle" fill="#fff" stroke="#fff" stroke-width="4" font-weight="normal">lomme 141 bred i Y=0 · sperrelist 2 mm</text>
<text x="150.0" y="293.0" font-size="9" text-anchor="middle" fill="#b5651d" font-weight="normal">lomme 141 bred i Y=0 · sperrelist 2 mm</text>
<text x="150.0" y="325.0" font-size="9" text-anchor="middle" fill="#fff" stroke="#fff" stroke-width="4" font-weight="normal">hult – står rett på landingsbrettet</text>
<text x="150.0" y="325.0" font-size="9" text-anchor="middle" fill="#444" font-weight="normal">hult – står rett på landingsbrettet</text>
<rect x="0.0" y="24.0" width="16.0" height="12.0" fill="#efe3cf" stroke="#8a6d3b" stroke-width="1.2"/>
<rect x="47.3" y="24.0" width="16.0" height="12.0" fill="#efe3cf" stroke="#8a6d3b" stroke-width="1.2"/>
<rect x="94.7" y="24.0" width="16.0" height="12.0" fill="#efe3cf" stroke="#8a6d3b" stroke-width="1.2"/>
<rect x="142.0" y="24.0" width="16.0" height="12.0" fill="#efe3cf" stroke="#8a6d3b" stroke-width="1.2"/>
<rect x="189.3" y="24.0" width="16.0" height="12.0" fill="#efe3cf" stroke="#8a6d3b" stroke-width="1.2"/>
<rect x="236.7" y="24.0" width="16.0" height="12.0" fill="#efe3cf" stroke="#8a6d3b" stroke-width="1.2"/>
<rect x="284.0" y="24.0" width="16.0" height="12.0" fill="#efe3cf" stroke="#8a6d3b" stroke-width="1.2"/>
<rect x="0.0" y="276.0" width="12.0" height="60.0" fill="#fff" stroke="#8e44ad" stroke-width="1.2" stroke-dasharray="4,2"/>
<rect x="270.0" y="44.0" width="12.0" height="224.0" fill="#fff" stroke="#111" stroke-width="1.4"/>
<circle cx="276.0" cy="44.0" r="3.4" fill="#111" stroke="#222" stroke-width="1.2"/>
<circle cx="264.0" cy="242.0" r="6.0" fill="#fff" stroke="#111" stroke-width="1.4"/>
<text x="260.0" y="28.0" font-size="8.5" text-anchor="end" fill="#fff" stroke="#fff" stroke-width="4" font-weight="normal">aksel Ø3 rustfri</text>
<text x="260.0" y="28.0" font-size="8.5" text-anchor="end" fill="#111" font-weight="normal">aksel Ø3 rustfri</text>
<text x="256.0" y="264.0" font-size="8.5" text-anchor="end" fill="#fff" stroke="#fff" stroke-width="4" font-weight="normal">stopp</text>
<text x="256.0" y="264.0" font-size="8.5" text-anchor="end" fill="#111" font-weight="normal">stopp</text>
</g>
<g transform="translate(120.0,600.0)">
<line x1="220.0" y1="12.0" x2="220.0" y2="352.0" stroke="#8e44ad" stroke-width="1.2" stroke-dasharray="6,3"/>
<line x1="400.0" y1="12.0" x2="400.0" y2="352.0" stroke="#8e44ad" stroke-width="1.2" stroke-dasharray="6,3"/>
<line x1="700.0" y1="36.0" x2="740.0" y2="36.0" stroke="#1a4d8f" stroke-width="0.7"/>
<line x1="700.0" y1="276.0" x2="740.0" y2="276.0" stroke="#1a4d8f" stroke-width="0.7"/>
<line x1="744.0" y1="36.0" x2="744.0" y2="276.0" stroke="#1a4d8f" stroke-width="0.9"/>
<line x1="741.0" y1="39.0" x2="747.0" y2="33.0" stroke="#1a4d8f" stroke-width="1.1"/>
<line x1="741.0" y1="279.0" x2="747.0" y2="273.0" stroke="#1a4d8f" stroke-width="1.1"/>
<text x="748.0" y="156.0" font-size="11" text-anchor="middle" fill="#1a4d8f" font-weight="normal" transform="rotate(-90 748.0 156.0)">120</text>
<line x1="700.0" y1="276.0" x2="740.0" y2="276.0" stroke="#1a4d8f" stroke-width="0.7"/>
<line x1="700.0" y1="340.0" x2="740.0" y2="340.0" stroke="#1a4d8f" stroke-width="0.7"/>
<line x1="744.0" y1="276.0" x2="744.0" y2="340.0" stroke="#1a4d8f" stroke-width="0.9"/>
<line x1="741.0" y1="279.0" x2="747.0" y2="273.0" stroke="#1a4d8f" stroke-width="1.1"/>
<line x1="741.0" y1="343.0" x2="747.0" y2="337.0" stroke="#1a4d8f" stroke-width="1.1"/>
<text x="748.0" y="308.0" font-size="11" text-anchor="middle" fill="#1a4d8f" font-weight="normal" transform="rotate(-90 748.0 308.0)">32</text>
<line x1="0.0" y1="340.0" x2="0.0" y2="384.0" stroke="#1a4d8f" stroke-width="0.7"/>
<line x1="700.0" y1="340.0" x2="700.0" y2="384.0" stroke="#1a4d8f" stroke-width="0.7"/>
<line x1="0.0" y1="380.0" x2="700.0" y2="380.0" stroke="#1a4d8f" stroke-width="0.9"/>
<line x1="-3.0" y1="383.0" x2="3.0" y2="377.0" stroke="#1a4d8f" stroke-width="1.1"/>
<line x1="697.0" y1="383.0" x2="703.0" y2="377.0" stroke="#1a4d8f" stroke-width="1.1"/>
<text x="350.0" y="376.0" font-size="11" text-anchor="middle" fill="#1a4d8f" font-weight="normal">350</text>
</g>
<g transform="translate(1420.0,760.0)">
<text x="-200.0" y="-150.0" font-size="13" text-anchor="start" fill="#111" font-weight="bold">DETALJ – SVALEHALESKJØT (plan, 5 px/mm)</text>
<text x="-200.0" y="-134.0" font-size="11" text-anchor="start" fill="#111" font-weight="normal">Skyves sammen ovenfra og ned.</text>
<rect x="-200.0" y="-100.0" width="200.0" height="200.0" fill="#e6e6e6" stroke="#222" stroke-width="1.2"/>
<polygon points="0.0,-26.5 -31.5,-36.5 -31.5,36.5 0.0,26.5" fill="#fff" stroke="#8e44ad" stroke-width="1.6"/>
<rect x="40.0" y="-100.0" width="200.0" height="200.0" fill="#e6e6e6" stroke="#222" stroke-width="1.2"/>
<polygon points="40.0,-25.0 10.0,-35.0 10.0,35.0 40.0,25.0" fill="#e8daef" stroke="#8e44ad" stroke-width="1.6"/>
<text x="-100.0" y="-70.0" font-size="11" text-anchor="middle" fill="#111" font-weight="normal">modul A/B (hunn)</text>
<text x="140.0" y="-70.0" font-size="11" text-anchor="middle" fill="#111" font-weight="normal">modul M (hann)</text>
<line x1="0.0" y1="60.0" x2="-30.0" y2="60.0" stroke="#1a4d8f" stroke-width="0.9"/>
<line x1="-3.0" y1="63.0" x2="3.0" y2="57.0" stroke="#1a4d8f" stroke-width="1.1"/>
<line x1="-33.0" y1="63.0" x2="-27.0" y2="57.0" stroke="#1a4d8f" stroke-width="1.1"/>
<text x="-15.0" y="56.0" font-size="11" text-anchor="middle" fill="#1a4d8f" font-weight="normal">6 dyp</text>
<line x1="-110.0" y1="-25.0" x2="-110.0" y2="25.0" stroke="#1a4d8f" stroke-width="0.9"/>
<line x1="-113.0" y1="-22.0" x2="-107.0" y2="-28.0" stroke="#1a4d8f" stroke-width="1.1"/>
<line x1="-113.0" y1="28.0" x2="-107.0" y2="22.0" stroke="#1a4d8f" stroke-width="1.1"/>
<text x="-114.0" y="0.0" font-size="11" text-anchor="middle" fill="#1a4d8f" font-weight="normal" transform="rotate(90 -114.0 0.0)">10 hals</text>
<line x1="-80.0" y1="-35.0" x2="-80.0" y2="35.0" stroke="#1a4d8f" stroke-width="0.9"/>
<line x1="-83.0" y1="-32.0" x2="-77.0" y2="-38.0" stroke="#1a4d8f" stroke-width="1.1"/>
<line x1="-83.0" y1="38.0" x2="-77.0" y2="32.0" stroke="#1a4d8f" stroke-width="1.1"/>
<text x="-84.0" y="0.0" font-size="11" text-anchor="middle" fill="#1a4d8f" font-weight="normal" transform="rotate(90 -84.0 0.0)">14 topp</text>
<text x="-100.0" y="85.0" font-size="10" text-anchor="middle" fill="#8e44ad" font-weight="normal">klaring 0,3 mm per side i sporet</text>
<text x="140.0" y="85.0" font-size="10" text-anchor="middle" fill="#8e44ad" font-weight="normal">list 30 høy (Z 2–32), avrundet 0,5</text>
<g transform="translate(-200.0,250.0)">
<text x="0.0" y="-90.0" font-size="11" text-anchor="start" fill="#111" font-weight="bold">SIDE (snitt): list i spor, snapp-tapp nederst</text>
<rect x="0.0" y="-80.0" width="30.0" height="160.0" fill="#fff" stroke="#333" stroke-width="1.2"/>
<rect x="1.5" y="-70.0" width="27.0" height="150.0" fill="#e8daef" stroke="#8e44ad" stroke-width="1.2"/>
<polygon points="0.0,70.0 10.0,70.0 0.0,80.0" fill="#8e44ad" stroke="#8e44ad" stroke-width="1.2"/>
<text x="40.0" y="75.0" font-size="10" text-anchor="start" fill="#8e44ad" font-weight="normal">snapp-tapp 1×2 mm: listen klikker forbi, låser mot løft</text>
<text x="40.0" y="-60.0" font-size="10" text-anchor="start" fill="#111" font-weight="normal">Z 32 (gulv)</text>
<text x="40.0" y="60.0" font-size="10" text-anchor="start" fill="#111" font-weight="normal">Z 0</text>
<line x1="0.0" y1="-80.0" x2="-10.0" y2="-80.0" stroke="#333" stroke-width="1.2"/>
<line x1="0.0" y1="80.0" x2="-10.0" y2="80.0" stroke="#333" stroke-width="1.2"/>
</g>
</g>
<g transform="translate(1330.0,130.0)">
<text x="0.0" y="0.0" font-size="13" text-anchor="start" fill="#111" font-weight="bold">SLIK HENGER DET SAMMEN</text>
<text x="0.0" y="20.0" font-size="11" text-anchor="start" fill="#111" font-weight="normal">1. Sett modul M på brettet. Skyv A ned over hann-listene i M-enden</text>
<text x="0.0" y="36.0" font-size="11" text-anchor="start" fill="#111" font-weight="normal">   (svalehalene styrer, snapp-tappen låser mot løft). Samme med B.</text>
<text x="0.0" y="52.0" font-size="11" text-anchor="start" fill="#111" font-weight="normal">2. Før spolekablene fra A og B gjennom Ø8-hullene i M-veggene</text>
<text x="0.0" y="68.0" font-size="11" text-anchor="start" fill="#111" font-weight="normal">   FØR modulene skyves helt sammen. Koble til J3/J4.</text>
<text x="0.0" y="84.0" font-size="11" text-anchor="start" fill="#111" font-weight="normal">3. Skru veggpaneler (L-fot) og takpaneler på hver modul.</text>
<text x="0.0" y="100.0" font-size="11" text-anchor="start" fill="#111" font-weight="normal">4. Lokk under M sist, med pakning. Fest karene til brettet med</text>
<text x="0.0" y="116.0" font-size="11" text-anchor="start" fill="#111" font-weight="normal">   treskruer i føttene (≥ 15 mm fra nærmeste vikling).</text>
<text x="0.0" y="132.0" font-size="11" text-anchor="start" fill="#111" font-weight="normal"></text>
<text x="0.0" y="148.0" font-size="11" text-anchor="start" fill="#111" font-weight="normal">Hvorfor tre moduler:</text>
<text x="0.0" y="164.0" font-size="11" text-anchor="start" fill="#111" font-weight="normal">• Spolene får 90 mm luft mellom seg → minimal innbyrdes kobling.</text>
<text x="0.0" y="180.0" font-size="11" text-anchor="start" fill="#111" font-weight="normal">• PCB ligger i en modul UTEN spole → ingen kobber under vikling.</text>
<text x="0.0" y="196.0" font-size="11" text-anchor="start" fill="#111" font-weight="normal">• Hver del ≤ 150 × 150 → små, stive print uten vridning.</text>
<text x="0.0" y="212.0" font-size="11" text-anchor="start" fill="#111" font-weight="normal">• Én spole i dag, to i morgen; bytt den modulen som svikter.</text>
<text x="0.0" y="228.0" font-size="11" text-anchor="start" fill="#111" font-weight="normal"></text>
<text x="0.0" y="244.0" font-size="11" text-anchor="start" fill="#111" font-weight="normal">Total PETG ≈ 1141 g (~297 kr).</text>
<text x="0.0" y="260.0" font-size="11" text-anchor="start" fill="#111" font-weight="normal">Lengde 350 – test med pappmodell i slaget først.</text>
</g>
</svg>